<svg xmlns="http://www.w3.org/2000/svg" viewBox="0 0 500 500"><g id="freepik--background-simple--inject-103"><path d="M456.6,355c-21.54,36.17-58.77,72.78-102.68,77.64C287.58,440,270.84,489.39,159,464.2a231.3,231.3,0,0,1-47.44-16A192.86,192.86,0,0,1,90,436.4C29,397.76,5.33,332.82,13.65,270.88c10.92-81.46,74.28-109.72,115-125.6S229.41,50.06,339.57,74a224.08,224.08,0,0,1,48.77,16.43c35.46,16.87,69.31,46.09,85.41,82.73,1.21,2.76,2.33,5.55,3.38,8.38C497.52,236.88,486,305.74,456.6,355Z" style="fill:#92E3A9"></path><path d="M456.6,355c-21.54,36.17-58.77,72.78-102.68,77.64C287.58,440,270.84,489.39,159,464.2a231.3,231.3,0,0,1-47.44-16A192.86,192.86,0,0,1,90,436.4C29,397.76,5.33,332.82,13.65,270.88c10.92-81.46,74.28-109.72,115-125.6S229.41,50.06,339.57,74a224.08,224.08,0,0,1,48.77,16.43c35.46,16.87,69.31,46.09,85.41,82.73,1.21,2.76,2.33,5.55,3.38,8.38C497.52,236.88,486,305.74,456.6,355Z" style="fill:#fff;opacity:0.7000000000000001"></path></g><g id="freepik--Character--inject-103"><polygon points="315.1 203.46 297.33 200.16 296.78 203.28 314.37 208.78 315.1 203.46" style="fill:#92E3A9;stroke:#263238;stroke-linecap:round;stroke-linejoin:round"></polygon><path d="M329.57,189.54s-13.92.18-15,0-1.65,4-2.38,5.5-5.13,6.77-4,7.69,5.13,0,5.68-.73,2.19-3.85,2.19-3.85a5.9,5.9,0,0,1,3.48,3.11,6.71,6.71,0,0,1-.91,6.6c-.73.55-6.05-1.1-7-1.47a3,3,0,0,0-3.67.55c-1.64,1.47-2.56,3.67-1.1,4.58s3.85.55,4.77.92,6.41,4.58,9.89,5.49,10.81,3.49,10.81,3.49l22.16,39.2,9,14.84,15.71-28s-25.24-20.17-29.63-24.2-9.16-9-9.71-10.81-5.31-19.24-6.6-21.62A2.78,2.78,0,0,0,329.57,189.54Z" style="fill:#fff;stroke:#263238;stroke-linecap:round;stroke-linejoin:round"></path><polygon points="450.48 434.61 444.28 376.33 359.04 380.67 360.21 434.61 450.48 434.61" style="fill:#263238;stroke:#263238;stroke-linecap:round;stroke-linejoin:round"></polygon><path d="M408.4,393.43a16,16,0,0,0,5.54,10.84c5.3,4.33,13,6.5,13,6.5" style="fill:none;stroke:#fff;stroke-linecap:round;stroke-linejoin:round"></path><line x1="425.74" y1="392.95" x2="431.76" y2="433.17" style="fill:none;stroke:#fff;stroke-linecap:round;stroke-linejoin:round"></line><path d="M372,394.88s1,30.1,1.69,30.58,6.26,3.61,6.26,3.61l-.73-15.89" style="fill:none;stroke:#fff;stroke-linecap:round;stroke-linejoin:round"></path><polygon points="367.46 385.49 368.67 392.47 380.71 392.71 380.95 385.97 367.46 385.49" style="fill:none;stroke:#263238;stroke-linecap:round;stroke-linejoin:round"></polygon><path d="M444.28,376.34,359,380.67l.19,8.95A96.67,96.67,0,0,0,391.06,393c18.84-1.07,40.34-5,53.85-10.76Z" style="fill:#fff;stroke:#263238;stroke-linecap:round;stroke-linejoin:round"></path><path d="M374.82,242.62s-6.69,6.92-8.25,11.82-7.36,15.38-9.81,28.76-5.13,33.67-3.79,47.71,4.68,39.47,3.79,45.49-.67,7.35,1.78,8.69S381.5,390,404,388s41.7-8.7,42.36-10.92a62.79,62.79,0,0,0,1.34-13.16c0-4.68-.67-33.44-.67-34.56s2.68-49.27,3.79-58,2.23-16-7.58-23.63-29.43-20.29-29.43-20.29S388.64,229.47,374.82,242.62Z" style="fill:#fff;stroke:#263238;stroke-linecap:round;stroke-linejoin:round"></path><path d="M368.87,326.57c.18,3.6.32,6.06.32,6.41" style="fill:none;stroke:#263238;stroke-linecap:round;stroke-linejoin:round"></path><path d="M381.13,253s-12.75,32.55-13,45c-.16,7.33.25,17.74.61,25.31" style="fill:none;stroke:#263238;stroke-linecap:round;stroke-linejoin:round"></path><path d="M413.23,320.27q1,.68,2.07,1.32" style="fill:none;stroke:#263238;stroke-linecap:round;stroke-linejoin:round"></path><path d="M388.45,296.91s9.76,12.57,22.29,21.63" style="fill:none;stroke:#263238;stroke-linecap:round;stroke-linejoin:round"></path><path d="M405,321.32a24.4,24.4,0,0,0,12.2,7.32" style="fill:none;stroke:#263238;stroke-linecap:round;stroke-linejoin:round"></path><polygon points="384.12 230.07 372.22 242.16 382.05 249.72 388.28 235.93 384.12 230.07" style="fill:#fff;stroke:#263238;stroke-linecap:round;stroke-linejoin:round"></polygon><path d="M381.67,217.41s1.89,12.66,1.89,13.8S382,249.72,382,249.72s11-8.31,13.42-10.58,14.73-15.68,14.73-15.68.38-7.18.57-11.52.57-14.55.57-14.55-7.94,12.47-13.42,16.25S381.67,217.41,381.67,217.41Z" style="fill:#fff;stroke:#263238;stroke-linecap:round;stroke-linejoin:round"></path><path d="M402.4,212.26s-4.19,8.39-9.33,13.29-8.95,4.52-8.95,4.52l-2-9.18Z" style="fill:#263238;stroke:#263238;stroke-linecap:round;stroke-linejoin:round"></path><path d="M367.43,164.91s-.52,32,1.3,36.4,7.28,16.12,10.39,18.2,11.7,2.86,15.6,1.3,10.14-8.58,13.78-14S412.4,194,412.4,194s7.54-1.82,9.62-4.68,3.64-10.66.52-12.48-8.06.78-8.06.78.52-7.28-1.56-8.84-4.94-5.2-5.2-7l-.26-1.82a102.74,102.74,0,0,1-17.94,4.68C380.68,166,367.43,164.91,367.43,164.91Z" style="fill:#fff;stroke:#263238;stroke-linecap:round;stroke-linejoin:round"></path><path d="M383.51,176.52s.25,3.49.74,7-2.24,14.47-2.74,16,3.74,2.25,8.23,0" style="fill:none;stroke:#263238;stroke-linecap:round;stroke-linejoin:round"></path><path d="M385,206s8.23,1.49,13.22-5" style="fill:none;stroke:#263238;stroke-linecap:round;stroke-linejoin:round"></path><path d="M374,175.71s3.67-2.86,7.35-1.22" style="fill:none;stroke:#92E3A9;stroke-linecap:round;stroke-linejoin:round;stroke-width:3px"></path><path d="M392.12,175s5.17-1.91,9.12,1.91" style="fill:none;stroke:#92E3A9;stroke-linecap:round;stroke-linejoin:round;stroke-width:3px"></path><path d="M381.54,184.15c0,1.51-.64,2.73-1.43,2.73s-1.43-1.22-1.43-2.73.64-2.72,1.43-2.72S381.54,182.65,381.54,184.15Z" style="fill:#263238"></path><path d="M397.79,184.7c0,1.5-.64,2.72-1.43,2.72s-1.43-1.22-1.43-2.72.64-2.72,1.43-2.72S397.79,183.19,397.79,184.7Z" style="fill:#263238"></path><path d="M377.3,134.24s-19.49,10.13-20.79,15.07,9.1,1.56,9.1,1.56-13.52,7.54-13.52,12,12.74,4.16,26.77,4.42,28.86-5.46,28.86-5.46-2.6,2.08,1,5.2a46.12,46.12,0,0,0,4.94,3.9l-.78,8.32a11.23,11.23,0,0,1,4.42-2.08l2.08-.26,1-9.62s6.5-2.08,4.42-15.6-13.52-20.79-27-20.79S377.3,134.24,377.3,134.24Z" style="fill:#92E3A9;stroke:#263238;stroke-linecap:round;stroke-linejoin:round"></path><path d="M410.61,155.28c-3.58,2.56-9.52,5.46-18.53,6.14-16.85,1.26-20.22-.21-16-2.74s6.95-1.27,6.95-1.27" style="fill:none;stroke:#263238;stroke-linecap:round;stroke-linejoin:round"></path><path d="M415.05,151.09a14.58,14.58,0,0,1-2.11,2.31" style="fill:none;stroke:#263238;stroke-linecap:round;stroke-linejoin:round"></path><path d="M414,146s-4.84,3.37-14.32,3.58" style="fill:none;stroke:#263238;stroke-linecap:round;stroke-linejoin:round"></path><polygon points="411.33 218.36 383.93 244.62 393.95 257.28 417.18 225.73 411.33 218.36" style="fill:#fff;stroke:#263238;stroke-linecap:round;stroke-linejoin:round"></polygon><polygon points="372.22 242.16 370.71 254.25 379.17 247.45 372.22 242.16" style="fill:#fff;stroke:#263238;stroke-linecap:round;stroke-linejoin:round"></polygon><polygon points="383.93 244.62 382.05 249.72 386.59 247.54 383.93 244.62" style="fill:#fff;stroke:#263238;stroke-linecap:round;stroke-linejoin:round"></polygon><path d="M411.16,289.67,433,343.18s3.12-3.79,10.48-6,17.61-2,17.61-2-10.7-30.1-10-36.79S448.61,268,448.61,268" style="fill:#fff;stroke:#263238;stroke-linecap:round;stroke-linejoin:round"></path><path d="M466,351.65s-5.63,9.63-13.37,15.83c-4.81,3.84-14.87,11-39.24,17.83-3.47,1-10.7,2.23-12-.66s.44-8.48,2.67-9.81,22.08-8.7,24.53-11.82,6.69-18.28,6.69-18.28,15.38-7.81,22.29-4.69S466.23,349.42,466,351.65Z" style="fill:#fff;stroke:#263238;stroke-linecap:round;stroke-linejoin:round"></path><path d="M428.32,347s3.79-10.71,15.39-13.83,16.5-4.46,18.06-2.67,5.79,11.59,6.46,14.94-2.23,6.24-2.23,6.24-3.12-7.58-9.36-8.7-19.62,5.8-23.19,7.36S428.32,347,428.32,347Z" style="fill:#fff;stroke:#263238;stroke-linecap:round;stroke-linejoin:round"></path><path d="M345.5,339.16l1.26-2.32s14.76,4.22,22.77,5.7,17.08,3.58,20.24,5.06,6.53,5.9,6.53,5.9a10.52,10.52,0,0,1,7.17-7.59c6.11-1.9,33.31-11.81,35.84-12.86l3.58-1.48.82,1.57-47.2,23.52Z" style="fill:#fff;stroke:#263238;stroke-linecap:round;stroke-linejoin:round"></path><polygon points="345.5 339.16 348.03 370.57 396.51 378.8 396.3 353.5 345.5 339.16" style="fill:#92E3A9;stroke:#263238;stroke-linecap:round;stroke-linejoin:round"></polygon><polygon points="396.3 353.5 443.71 333.14 439.1 366.99 396.51 378.8 396.3 353.5" style="fill:#92E3A9;stroke:#263238;stroke-linecap:round;stroke-linejoin:round"></polygon><path d="M409,378.63s3-4.32,3.45-6.19-1-5.89,0-8.34,1.87-5.47,4-7.05,3.31-3.74.15-3.74-8.2,4.75-9.79,7.48-2.58,4.89-5.32,5.9-8.92,1.15-13.09-.43-16.83-7.19-19.85-8.63-5.18-1-4.31,1.15,7,5.75,8.91,7.48a28.73,28.73,0,0,1,3.17,3.45,99.86,99.86,0,0,1-10.21-3.31c-5.18-2-7.63-1.72-7.34.43s6.62,4.75,7.62,5.47,4.32,5.32,6.19,6.62,6,2.44,11.51,3.16,13.23,4,17.69,4.6a29.36,29.36,0,0,0,9.49-.71" style="fill:#fff;stroke:#263238;stroke-linecap:round;stroke-linejoin:round"></path><path d="M366.37,372.3s9.07,4,11.51,4.89a22.29,22.29,0,0,0,3.45,1" style="fill:none;stroke:#263238;stroke-linecap:round;stroke-linejoin:round"></path></g></svg>
