<svg xmlns="http://www.w3.org/2000/svg" xmlns:xlink="http://www.w3.org/1999/xlink" viewBox="0 0 500 500"><defs><clipPath id="freepik--clip-path--inject-97"><path d="M293.84,178.6c.34-3.3-1.33-8.27-1.33-8.28-1.76-2.32-11.27-5.86-14.78-8.15s-9.38-4.43-12.89-4.42-10.9.21-10.9.21q-5.88,2.64-12,4.7c-3.88,1.09-21,8.13-21,9.39s3.8,66.55,3.8,66.55l-2.52,23.66c-.54,5.08,4.67,9,10,7.59,13.51-3.68,33-8.56,33-8.56l20.57,5.93c5.6,1.81,5.66-4.37,4.7-9.75h0A121.3,121.3,0,0,1,289,202.2C291.46,190.09,293.84,178.61,293.84,178.6Z" style="fill:#92E3A9;stroke:#263238;stroke-linecap:round;stroke-linejoin:round"></path></clipPath><clipPath id="freepik--clip-path-2--inject-97"><path d="M220.47,172.72c-.37,1.76-18.26,37.34-19.61,38s-2.09.19-2.09.19l-19.91-22.68-11.25,7.25a189,189,0,0,0,12.14,20.88c7.5,11.23,20.55,19.65,23.4,18.74s22.06-29.28,22.06-29.28l3-20.28A12.18,12.18,0,0,0,220.47,172.72Z" style="fill:#92E3A9"></path></clipPath></defs><g id="freepik--background-simple--inject-97"><path d="M335.69,38.29c-44.4-6.72-90.54-3.17-132.75,12.41S122.62,94.13,96.31,131.23c-15.6,22-27.15,51-16.63,75.91,4.51,10.68,12.88,20.15,13.38,31.76.67,15.65-12.86,27.53-24.38,37.89C56.21,288,44.57,300.56,36.8,315.55s-11.4,32.71-7.39,49.17C33.64,382.05,45.88,396.4,60,406.94c21.68,16.15,47.84,24.56,73.48,32.71,15.91,5.06,32.71,10.17,49,6.55,18.5-4.12,32.74-18.6,48.42-29.42a136.6,136.6,0,0,1,87.88-23.63c19.78,1.61,39.41,7.58,59.14,5.42,20.44-2.23,39-13,56.07-24.65,16.56-11.28,33.62-25.52,37.19-45.5,2.6-14.49-2.58-29.34-9.89-42s-16.77-24-24-36.75a124,124,0,0,1-13.74-83.49c6.14-32.27,19.86-62.06-5-89.39C397.28,53.34,365.91,42.86,335.69,38.29Z" style="fill:#92E3A9"></path><path d="M335.69,38.29c-44.4-6.72-90.54-3.17-132.75,12.41S122.62,94.13,96.31,131.23c-15.6,22-27.15,51-16.63,75.91,4.51,10.68,12.88,20.15,13.38,31.76.67,15.65-12.86,27.53-24.38,37.89C56.21,288,44.57,300.56,36.8,315.55s-11.4,32.71-7.39,49.17C33.64,382.05,45.88,396.4,60,406.94c21.68,16.15,47.84,24.56,73.48,32.71,15.91,5.06,32.71,10.17,49,6.55,18.5-4.12,32.74-18.6,48.42-29.42a136.6,136.6,0,0,1,87.88-23.63c19.78,1.61,39.41,7.58,59.14,5.42,20.44-2.23,39-13,56.07-24.65,16.56-11.28,33.62-25.52,37.19-45.5,2.6-14.49-2.58-29.34-9.89-42s-16.77-24-24-36.75a124,124,0,0,1-13.74-83.49c6.14-32.27,19.86-62.06-5-89.39C397.28,53.34,365.91,42.86,335.69,38.29Z" style="fill:#fff;opacity:0.7000000000000001"></path></g><g id="freepik--Character--inject-97"><ellipse cx="250.15" cy="451.05" rx="77.61" ry="13.62" style="fill:#92E3A9"></ellipse><path d="M222.57,256.87s2.49,63.12,4.55,81.41A298,298,0,0,1,229,386.34c-.63,16.52,3,45.46,3,46.14l0,3.85s-5.35,8.79-8.32,11.6-4.56,5.57-3.56,7.06,3.79,3.84,11.55,1.67,10.76-4.53,12.54-7.32a18.41,18.41,0,0,1,4.76-4.72,84.38,84.38,0,0,1,10.17,3c5.19,1.91,9.38,4,15.35,4s7.17-4.09,5.75-6-11.38-7.22-13-10.64-.83-6.19-.86-13.89,3.44-40.49,6-52.95c2.1-10.12,8.28-27.43,10.32-43.58s4.79-43.6,5-51.74.07-15.42.07-15.42.16-.86-.6-4.46-1-3.59-19.63-1.75a291.94,291.94,0,0,1-36.81,1.49C225,252.46,223.05,254.28,222.57,256.87Z" style="fill:#c9cccd;stroke:#263238;stroke-linecap:round;stroke-linejoin:round"></path><path d="M249.48,433.24s.57-7,.53-16.46,1.7-38.72,5.48-55.8,6.13-74.91,6.13-74.91a11.91,11.91,0,0,0,5.74-6.22" style="fill:none;stroke:#263238;stroke-linecap:round;stroke-linejoin:round"></path><path d="M261.83,259.76l-.12,15.52h0a12.09,12.09,0,0,0,5.28-9.15l.37-6.21" style="fill:none;stroke:#263238;stroke-linecap:round;stroke-linejoin:round"></path><path d="M244.91,438.38s-2-4.9-6.59-6S232,436.3,232,436.3s-5.35,8.79-8.32,11.6-4.56,5.57-3.56,7.06,3.8,3.85,11.55,1.67,10.76-4.53,12.54-7.31a18.25,18.25,0,0,1,4.76-4.72l.55-11.33Z" style="fill:#263238;stroke:#263238;stroke-linecap:round;stroke-linejoin:round"></path><path d="M241.18,447.8c-2.38,3.65-4.75,6-12.72,6.46-4.49.26-7.08-.58-8.5-1.36a2.33,2.33,0,0,0,.14,2c1,1.49,3.79,3.84,11.55,1.66s10.76-4.53,12.54-7.31a18.1,18.1,0,0,1,4.76-4.72l.15-3C248.64,441.8,243.45,444.32,241.18,447.8Z" style="fill:#fff;stroke:#263238;stroke-linecap:round;stroke-linejoin:round"></path><path d="M274.46,451.53c6,0,7.16-4.09,5.74-6s-11.38-7.22-13-10.64a10.82,10.82,0,0,1-1-4.27c-5.9-.94-8.75,5.63-8.75,5.63l-8-3-.55,11.33a80.89,80.89,0,0,1,10.17,3C264.29,449.43,268.48,451.55,274.46,451.53Z" style="fill:#263238;stroke:#263238;stroke-linecap:round;stroke-linejoin:round"></path><path d="M260.48,445.59a71.68,71.68,0,0,0-11.4-4h0v3a85.05,85.05,0,0,1,10,2.93c5.19,1.91,9.39,4,15.36,4,3.88,0,5.72-1.73,6.17-3.46C273.75,452.56,264.41,447.58,260.48,445.59Z" style="fill:#fff;stroke:#263238;stroke-linecap:round;stroke-linejoin:round"></path><path d="M175,184.68c-1.51-4.14,1.5-5.44.61-9.73-.82-4.06,0-9.21-.46-10.66s-2.79-2.29-3.86.87c-.72,2.44.76,5.19-1.38,7.46,0,0-4.43-2.18-7.6-2.24s-2.69,2.24-3.35,5.37-1.25,9.07,1.77,11.18a17.73,17.73,0,0,0,7.15,2.57s.82,1.9,3.65,7.69c6.38,13,6.69,13.57,10.42,20,5.95,10.19,12.39,12.81,15.42,9.22s7-6.31-.9-16.09c-3.76-4.67-19.31-21.95-19.31-21.95A22.75,22.75,0,0,1,175,184.68Z" style="fill:#999;stroke:#263238;stroke-linecap:round;stroke-linejoin:round"></path><path d="M168.7,181.07c-1.78-2.88,0-5.1.6-6.12a8,8,0,0,0,.79-2.78" style="fill:none;stroke:#263238;stroke-linecap:round;stroke-linejoin:round"></path><polygon points="154.94 128.31 163.13 191.5 166.34 190.12 155.75 128.13 154.94 128.31" style="fill:#fff"></polygon><path d="M158,176a40.2,40.2,0,0,0,3.86,1.43c.88.19,2.84.24,3.41,1.1s.83,4.07-1.74,4.24l-6.58-2.21S154.82,177.57,158,176Z" style="fill:#999;stroke:#263238;stroke-linecap:round;stroke-linejoin:round"></path><path d="M164,174.06a2.09,2.09,0,0,1,.34.08,1.94,1.94,0,0,1,1.38,2.48,3.07,3.07,0,0,1-4.17,2.37c-2.45-.77-4.65-2-5.14-3.65a2.44,2.44,0,0,1,1.33-2.63Z" style="fill:#999;stroke:#263238;stroke-linecap:round;stroke-linejoin:round"></path><path d="M165.23,170.2s-6.32-2.58-7.88-2.67-1.84,3.11-1.39,4.43,6.43,3.22,8.2,3,1.61-4.26,1.61-4.26C165,169.92,165.23,170.2,165.23,170.2Z" style="fill:#999;stroke:#263238;stroke-linecap:round;stroke-linejoin:round"></path><path d="M163.05,182.33c3.22.81,2.57,3.71,1.15,4.25s-6.26-.62-7-1.87.1-3.5.1-3.5A48.66,48.66,0,0,1,163.05,182.33Z" style="fill:#999;stroke:#263238;stroke-linecap:round;stroke-linejoin:round"></path><path d="M293.84,178.6c.34-3.3-1.33-8.27-1.33-8.28-1.76-2.32-11.27-5.86-14.78-8.15s-9.38-4.43-12.89-4.42-10.9.21-10.9.21q-5.88,2.64-12,4.7c-3.88,1.09-21,8.13-21,9.39s3.8,66.55,3.8,66.55l-2.52,23.66c-.54,5.08,4.67,9,10,7.59,13.51-3.68,33-8.56,33-8.56l20.57,5.93c5.6,1.81,5.66-4.37,4.7-9.75h0A121.3,121.3,0,0,1,289,202.2C291.46,190.09,293.84,178.61,293.84,178.6Z" style="fill:#92E3A9"></path><g style="clip-path:url(#freepik--clip-path--inject-97)"><path d="M240.26,216.91c-2.93-6.12-5-13-10.66-17.23-5.54,3.81-7.21,10.84-7,17.2s2,12.68,1.58,19c-.33,5-2,9.8-3.15,14.67s-1.87,10-.3,14.8,5.89,9.07,11.29,9.55c4.06.36,7.94-1.4,11.57-3.11l16-7.55a4.63,4.63,0,0,0,2.15-1.57,4,4,0,0,0,0-3c-2.1-8.36-2.79-19.27-7-27C251.36,226.47,243.58,224,240.26,216.91Z" style="opacity:0.2;isolation:isolate"></path></g><path d="M293.84,178.6c.34-3.3-1.33-8.27-1.33-8.28-1.76-2.32-11.27-5.86-14.78-8.15s-9.38-4.43-12.89-4.42-10.9.21-10.9.21q-5.88,2.64-12,4.7c-3.88,1.09-21,8.13-21,9.39s3.8,66.55,3.8,66.55l-2.52,23.66c-.54,5.08,4.67,9,10,7.59,13.51-3.68,33-8.56,33-8.56l20.57,5.93c5.6,1.81,5.66-4.37,4.7-9.75h0A121.3,121.3,0,0,1,289,202.2C291.46,190.09,293.84,178.61,293.84,178.6Z" style="fill:none;stroke:#263238;stroke-linecap:round;stroke-linejoin:round"></path><path d="M276.07,185.33c-.22,3.92-1.75,16.18-5.92,26-2.6,6.15-4.89,11.18-5.46,12.26l-.11.19c-.16.22-.56-.66-1.11-2.25v-.05c-.91-2.61-2.22-7.09-3.54-11.76-1.88-6.61-3.79-13.58-4.63-16.13-3.46-10.38-4.65-11.14-5.28-21s2.21-13.92,2.21-13.92c4.85-6.09,15.58-1.5,17.92-.44s5,.81,5.72,5.25C276.93,170.25,276.93,170.25,276.07,185.33Z" style="fill:#fff;stroke:#263238;stroke-linecap:round;stroke-linejoin:round"></path><polyline points="250.64 162.96 256.42 173.53 266.51 168.55 276.01 172.52" style="fill:none;stroke:#263238;stroke-linecap:round;stroke-linejoin:round"></polyline><polyline points="258.43 172.54 264.23 179.95 267.06 183.57 269.62 179.79 274.85 172.03" style="fill:none;stroke:#263238;stroke-linecap:round;stroke-linejoin:round"></polyline><polygon points="268.39 176.38 269.62 179.79 267.06 183.57 264.23 179.95 265.47 176.39 262 171.03 266.51 168.55 271.11 170.63 268.39 176.38" style="fill:#263238"></polygon><path d="M220.47,172.72c-.37,1.76-18.26,37.34-19.61,38s-2.09.19-2.09.19l-19.91-22.68-11.25,7.25a189,189,0,0,0,12.14,20.88c7.5,11.23,20.55,19.65,23.4,18.74s22.06-29.28,22.06-29.28l3-20.28A12.18,12.18,0,0,0,220.47,172.72Z" style="fill:#92E3A9"></path><g style="clip-path:url(#freepik--clip-path-2--inject-97)"><path d="M216.05,186.65c2.29,2.27,5.11,4.19,6.56,7a6.1,6.1,0,0,0,1,1.71,1.7,1.7,0,0,0,1.93.36,2,2,0,0,0,.65-1.84,50.48,50.48,0,0,0-5.16-20.75c-.77-1.56-1.84-3.25-3.65-3.6a4.31,4.31,0,0,0-4.6,3.09C211.52,176.91,212.79,183.4,216.05,186.65Z" style="opacity:0.2;isolation:isolate"></path><path d="M196.47,222.35a6.85,6.85,0,0,1,1.58-7.22,10.55,10.55,0,0,0,3.27,7.58c.09-2,.17-4.09.26-6.13,1.74.72.81,3.61,2.44,4.53,1.13.65,2.55-.19,3.57-1l10-7.84a40.15,40.15,0,0,1-10,18.89,10.76,10.76,0,0,1-5.49,3.62c-3.33.68-6.58-1.26-9.21-3.26a72.6,72.6,0,0,1-18.74-21,101.91,101.91,0,0,1-5-10,8.8,8.8,0,0,1-1-3.91c.2-4,4-3.5,6.14-1.36s3.18,6.42,4.88,8.94A76.14,76.14,0,0,0,196.47,222.35Z" style="opacity:0.2;isolation:isolate"></path></g><path d="M289,202.2s9,20.15,17.58,28c7.21,6.59,25.87-1.63,13.69-17.7-14-18.47-18-22-20.23-30.23-2.65-9.8-7.48-12-7.48-12S281.46,180.23,289,202.2Z" style="fill:#92E3A9;stroke:#263238;stroke-linecap:round;stroke-linejoin:round"></path><path d="M220.47,172.72c-.37,1.76-18.26,37.34-19.61,38s-2.09.19-2.09.19l-19.91-22.68-11.25,7.25a189,189,0,0,0,12.14,20.88c7.5,11.23,20.55,19.65,23.4,18.74s22.06-29.28,22.06-29.28" style="fill:none;stroke:#263238;stroke-linecap:round;stroke-linejoin:round"></path><path d="M244.11,162.91l-6.3,22.63,12.2,5.25a29.7,29.7,0,0,0-6.49,10.47l16.19,15.29" style="fill:none;stroke:#263238;stroke-linecap:round;stroke-linejoin:round"></path><path d="M269.83,217.85,281,206.13" style="fill:none;stroke:#263238;stroke-linecap:round;stroke-linejoin:round"></path><path d="M264.11,224a171.7,171.7,0,0,0,1.08,30.07" style="fill:#fff;stroke:#263238;stroke-linecap:round;stroke-linejoin:round"></path><path d="M227.91,181.79a29.3,29.3,0,0,1-1.82,21.05" style="fill:none;stroke:#263238;stroke-linecap:round;stroke-linejoin:round"></path><path d="M226.76,178.53c.18.44.36.88.52,1.33" style="fill:none;stroke:#263238;stroke-linecap:round;stroke-linejoin:round"></path><path d="M224.48,174.18c.49.77.94,1.55,1.35,2.36" style="fill:none;stroke:#263238;stroke-linecap:round;stroke-linejoin:round"></path><path d="M242.6,227.64a109.81,109.81,0,0,0,36,1.91" style="fill:none;stroke:#263238;stroke-linecap:round;stroke-linejoin:round"></path><path d="M266.51,168.54s-13.2-5.66-12.4-7.95c1.91-5.36.2-10-1.72-15.39a15.36,15.36,0,0,0,5.15,5.43,14.67,14.67,0,0,0,4.66,2h0a14.33,14.33,0,0,0,6.61,0,2.37,2.37,0,0,0-.08.34,8.23,8.23,0,0,0-.31,2.41,2.57,2.57,0,0,0,0,.48V156a5.13,5.13,0,0,0,4.18,5C274,161.14,269.83,168.53,266.51,168.54Z" style="fill:#999;stroke:#263238;stroke-linecap:round;stroke-linejoin:round"></path><path d="M268.82,152.66c-2.13.5-11.5-3.44-13.73-4,1.69,1.61,3.1,5.57,13.34,7.32v-.12l0-.52a10.52,10.52,0,0,1,.28-2.37c0-.11.05-.23.09-.34" style="fill:#263238;stroke:#263238;stroke-linecap:round;stroke-linejoin:round"></path><line x1="268.83" y1="152.66" x2="268.82" y2="152.66" style="fill:none;stroke:#263238;stroke-linecap:round;stroke-linejoin:round"></line><path d="M280.49,146.6s-5.39,3.78-8.9,5.71c-5.07,2.79-12.73,1.09-18.3-1.32-2.55-1.1-6.39-2.64-6.39-2.64s-.24-4.19-.41-6.42c-1.16-2-3.17-5.54-6-11.19-4.69-9.46,2.08-19.38,9.27-22.74s11.1,1.23,11.1,1.23l1.83,13,9-1.92L277.17,132s-.58,2.76,1.67,8.31A38.12,38.12,0,0,1,280.49,146.6Z" style="fill:#fff;stroke:#263238;stroke-linecap:round;stroke-linejoin:round"></path><path d="M246.61,132.05s-2.55-3.36-5.35-2.43-1.93,5.6.09,7.93,5.05,2.94,5.78,0A8.76,8.76,0,0,0,246.61,132.05Z" style="fill:#999;stroke:#263238;stroke-linecap:round;stroke-linejoin:round"></path><path d="M275.83,127.86s1.9-4.07,3.71-1.19.41,7.54-.67,8.21-2.35.2-2.64-1.72A49.54,49.54,0,0,1,275.83,127.86Z" style="fill:#999;stroke:#263238;stroke-linecap:round;stroke-linejoin:round"></path><path d="M269.47,110.67s-7.38-2.73-14-.67-10.1,6.57-9.28,9.51,2.33,5.93,2.6,11,1.36,12.82,7,15.12,7,2.23,7.5,1a5.92,5.92,0,0,1,1.26-2.28c.42-.4,3-.72,3.31-.36.7.73.92,2,1.54,2.56.94.78,3.48-1.45,6.3-4.78s1.87-8.66.62-13.32S275,120.75,274.25,117A8.57,8.57,0,0,0,269.47,110.67Z" style="fill:#999;stroke:#263238;stroke-linecap:round;stroke-linejoin:round"></path><polyline points="251.75 127.11 248.44 127.62 245.91 130.21" style="fill:none;stroke:#263238;stroke-linecap:round;stroke-linejoin:round"></polyline><path d="M266.38,125.63s3.28,7.2,2.31,7.87-4.69,1.85-5.65.35" style="fill:none;stroke:#263238;stroke-linecap:round;stroke-linejoin:round"></path><path d="M252.41,124.15a1.2,1.2,0,0,1-.45-.09.93.93,0,0,1-.51-1.27c.08-.17,2.11-4.08,8.49-3.35a1,1,0,0,1,.91,1.08,1,1,0,0,1-1.17.84c-4.81-.56-6.27,2.12-6.32,2.24A1.09,1.09,0,0,1,252.41,124.15Z" style="fill:#fff;stroke:#263238;stroke-linecap:round;stroke-linejoin:round"></path><path d="M274.44,122.5a1.1,1.1,0,0,0,.42-.17.91.91,0,0,0,.25-1.33c-.12-.15-2.9-3.65-9-1.83a.94.94,0,0,0-.67,1.21,1.08,1.08,0,0,0,1.32.62c4.61-1.36,6.58,1,6.66,1.12A1.12,1.12,0,0,0,274.44,122.5Z" style="fill:#fff;stroke:#263238;stroke-linecap:round;stroke-linejoin:round"></path><line x1="262.07" y1="125.79" x2="266.84" y2="125.22" style="fill:none;stroke:#263238;stroke-linecap:round;stroke-linejoin:round"></line><path d="M262.62,127.57a5.46,5.46,0,1,1-5.47-5A5.24,5.24,0,0,1,262.62,127.57Z" style="fill:#92E3A9;stroke:#263238;stroke-linecap:round;stroke-linejoin:round"></path><path d="M277.72,125.59a5.46,5.46,0,1,1-5.47-5A5.24,5.24,0,0,1,277.72,125.59Z" style="fill:#92E3A9;stroke:#263238;stroke-linecap:round;stroke-linejoin:round"></path><path d="M258.11,127.72c0,.94-.35,1.72-.89,1.75s-1-.72-1.08-1.65.35-1.72.89-1.74S258.06,126.79,258.11,127.72Z" style="fill:#263238"></path><path d="M271.35,126.33c0,.94-.35,1.72-.89,1.74s-1-.71-1.07-1.65.34-1.72.89-1.74S271.3,125.39,271.35,126.33Z" style="fill:#263238"></path><path d="M264,134.77c-4.19.59-7.73,4-8.22,7.84a8.81,8.81,0,0,0,10.29-3c3,2.82,6.33,2.35,9.05,1.4a7.6,7.6,0,0,0-3.45-5.09,8.9,8.9,0,0,0-6.39-1.15Z" style="fill:#fff;stroke:#263238;stroke-linecap:round;stroke-linejoin:round"></path><path d="M320.44,166.2l-8.13,33s-11-2.34-15.48.7a48.45,48.45,0,0,0-7.59,6.47l4.53-35.58S302.83,159.22,320.44,166.2Z" style="fill:#fff;stroke:#263238;stroke-linecap:round;stroke-linejoin:round"></path><path d="M293.77,170.77l-4.53,35.58s-12.64-10.76-22.91-5.14l-3.48,2,1.42-35.35S277.6,160.35,293.77,170.77Z" style="fill:#fff;stroke:#263238;stroke-linecap:round;stroke-linejoin:round"></path><path d="M289.23,206c8.84-3.34,17.43-6.82,25.16-1.42,1.89-9.71,5.1-19.07,7.33-28.72,1.79-7.73,1.9-6.4-2.62-8.29-3.91-1.63-21.58-2.11-24.53,7C293.5,177.88,289.83,205.2,289.23,206Z" style="fill:#263238;stroke:#fff;stroke-miterlimit:10"></path><path d="M260.39,206.59c5-4.69,13.44-5.07,19.36-1.39,2.52,1.56,5.95,2.53,5.92,2.32v-.05l5-33.3.33.19c-2-4.83-10.45-6.64-15.67-6.42a24.94,24.94,0,0,0-12.63,4.73S260.75,197,260.39,206.59Z" style="fill:#263238;stroke:#fff;stroke-miterlimit:10"></path><path d="M285.67,207.52s3.21.66,4.23-1.78l5-32s-1.11,2.16-3.89.66l-.33-.19-5,33.3A.12.12,0,0,1,285.67,207.52Z" style="fill:#fff;stroke:#263238;stroke-linecap:round;stroke-linejoin:round"></path><path d="M285.67,207.52s3.21.66,4.23-1.78l5-32s-1.11,2.16-3.89.66l-.33-.19-5,33.3A.12.12,0,0,1,285.67,207.52Z" style="fill:#263238;stroke:#fff;stroke-miterlimit:10"></path><polyline points="309.42 203.54 306.46 206.09 300.94 210.82 297.51 213.77" style="fill:none;stroke:#263238;stroke-linecap:round;stroke-linejoin:round"></polyline><path d="M240.85,307.85c2.26,37.25-3,74.66-2.82,116.68" style="fill:none;stroke:#263238;stroke-linecap:round;stroke-linejoin:round"></path><path d="M277.28,308.43c-.56,27.95-9.36,66.18-10.46,104.27" style="fill:none;stroke:#263238;stroke-linecap:round;stroke-linejoin:round"></path><path d="M307.5,205.41l-6,5.15-.7.31c-2.56-6.08-3-7.51-3-7.51h-.12a11.19,11.19,0,0,1-3.41-1.22,5.07,5.07,0,0,1-.79-.51c-.13-.09-.25-.2-.38-.3l-.34-.34a12.61,12.61,0,0,1-2.53-3.52h0a10.16,10.16,0,0,1-.95-2.9l0,0a13.43,13.43,0,0,1-3.12-3.23,12,12,0,0,1-.45-1.42,1.27,1.27,0,0,1-.06-.18c-.07-.27-.13-.55-.2-.82-.3-1.3-.55-2.61-.74-3.1v-.06a3.18,3.18,0,0,1,.1-2.31,3.22,3.22,0,0,1,.43-.7.47.47,0,0,1,.16-.15c.92-.76,3.55-.52,3.82-.5h0l-1-.49-1.56-.74s-2.81-.29-3.41-.79a1,1,0,0,1-.07-1.58l.17-.07c.11,0,.29-.08.51-.12a8.33,8.33,0,0,1,1.28-.12l1.85,0a9,9,0,0,1,4.25,1.48c2.88,1.54,6,2.86,6.59,4.33s2.95,8.31,5.09,13.49c.19.45.37.91.59,1.34A26.85,26.85,0,0,0,305.7,203C306.23,203.74,306.84,204.55,307.5,205.41Z" style="fill:#999;stroke:#263238;stroke-linecap:round;stroke-linejoin:round"></path><path d="M292.25,190.81l-4.14-2.32a4.08,4.08,0,0,0-2.72.37" style="fill:none;stroke:#263238;stroke-linecap:round;stroke-linejoin:round"></path><path d="M293.94,188.09s-4.4-2.31-5.81-2.9a4.9,4.9,0,0,0-3.55.55" style="fill:none;stroke:#263238;stroke-linecap:round;stroke-linejoin:round"></path><path d="M289.17,182s5.68,2.6,6.09,3.13" style="fill:#fff;stroke:#263238;stroke-linecap:round;stroke-linejoin:round"></path><path d="M288,190.82c1.13,1.68,1.62,5.09,2.18,6.64" style="fill:#999;stroke:#263238;stroke-linecap:round;stroke-linejoin:round"></path><path d="M272.24,225.48a2.18,2.18,0,1,1-2.17-2A2.08,2.08,0,0,1,272.24,225.48Z" style="fill:none;stroke:#263238;stroke-linecap:round;stroke-linejoin:round"></path></g></svg>